<svg xmlns="http://www.w3.org/2000/svg" width="83" height="100" viewBox="0 0 83 100"><linearGradient id="a" gradientUnits="userSpaceOnUse" x1="13.33" y1="4.667" x2="13.33" y2="93.016"><stop offset="0" stop-color="#009f8d"/><stop offset="1" stop-color="#0064b4"/></linearGradient><path fill="url(#a)" d="M4.239 53.461h7.046c5.294 0 11.135 3.511 11.135 10.561 0 7.08-5.841 10.616-11.135 10.616H4.239V53.461zM9.74 69.736h1.545c2.63 0 5.568-1.937 5.568-5.715 0-3.75-2.938-5.658-5.568-5.658H9.74v11.373z"/><linearGradient id="b" gradientUnits="userSpaceOnUse" x1="31.543" y1="4.667" x2="31.543" y2="93.016"><stop offset="0" stop-color="#009f8d"/><stop offset="1" stop-color="#0064b4"/></linearGradient><path fill="url(#b)" d="M25.523 74.637V53.461h5.509v16.275h6.53v4.901H25.523z"/><linearGradient id="c" gradientUnits="userSpaceOnUse" x1="48.503" y1="4.667" x2="48.503" y2="93.016"><stop offset="0" stop-color="#009f8d"/><stop offset="1" stop-color="#0064b4"/></linearGradient><path fill="url(#c)" d="M45.691 53.461v13.16c0 1.421.605 3.421 2.816 3.421 2.205 0 2.811-2 2.811-3.421v-13.16h5.503v13.16c0 3.512-1.661 8.379-8.313 8.379-6.658 0-8.322-4.867-8.322-8.379v-13.16h5.505z"/><linearGradient id="d" gradientUnits="userSpaceOnUse" x1="69.877" y1="4.667" x2="69.877" y2="93.016"><stop offset="0" stop-color="#009f8d"/><stop offset="1" stop-color="#0064b4"/></linearGradient><path fill="url(#d)" d="M60.953 53.461h8.105c4.691 0 8.594.788 8.594 6.049 0 1.727-1.001 3.329-2.208 3.932v.062c2.086.911 3.356 2.3 3.356 4.72 0 5.296-4.418 6.413-9.437 6.413h-8.411V53.461zm5.509 8.385h3.596c1 0 2.028-.518 2.028-1.67 0-1.448-1.365-1.812-3.027-1.812h-2.597v3.482zm0 7.89h2.902c2.053 0 3.87-.45 3.87-2.024 0-1.365-1.179-2.091-3.202-2.091h-3.57v4.115z"/><linearGradient id="e" gradientUnits="userSpaceOnUse" x1="40.898" y1="4.667" x2="40.898" y2="93.016"><stop offset="0" stop-color="#009f8d"/><stop offset="1" stop-color="#0064b4"/></linearGradient><path fill="url(#e)" d="M20.578 18.021v20.274h4.502V18.021h-4.502zm36.044 0v20.274h4.503V18.021h-4.503zM16.073 45.979h49.558v-4.504H16.073v4.504zM40.852 0l-27.01 13.517 2.029 4.028 24.98-12.498 25.072 12.544 2.03-4.032L40.852 0z"/><linearGradient id="f" gradientUnits="userSpaceOnUse" x1="40.849" y1="4.667" x2="40.849" y2="93.016"><stop offset="0" stop-color="#009f8d"/><stop offset="1" stop-color="#0064b4"/></linearGradient><path fill="url(#f)" d="M26.775 38.296h5.913l22.235-20.275h-5.904z"/><linearGradient id="g" gradientUnits="userSpaceOnUse" x1="40.849" y1="4.667" x2="40.849" y2="93.016"><stop offset="0" stop-color="#009f8d"/><stop offset="1" stop-color="#0064b4"/></linearGradient><path fill="url(#g)" d="M54.923 38.296h-5.904L26.775 18.021h5.913z"/><linearGradient id="h" gradientUnits="userSpaceOnUse" x1="26.633" y1="4.667" x2="26.633" y2="93.016"><stop offset="0" stop-color="#009f8d"/><stop offset="1" stop-color="#0064b4"/></linearGradient><path fill="url(#h)" d="M20.578 18.021h12.109v3.655H20.578z"/><linearGradient id="i" gradientUnits="userSpaceOnUse" x1="55.097" y1="4.667" x2="55.097" y2="93.016"><stop offset="0" stop-color="#009f8d"/><stop offset="1" stop-color="#0064b4"/></linearGradient><path fill="url(#i)" d="M49.231 18.021h11.73v3.655h-11.73z"/><linearGradient id="j" gradientUnits="userSpaceOnUse" x1="26.633" y1="4.667" x2="26.633" y2="93.016"><stop offset="0" stop-color="#009f8d"/><stop offset="1" stop-color="#0064b4"/></linearGradient><path fill="url(#j)" d="M20.578 34.636h12.109v3.655H20.578z"/><linearGradient id="k" gradientUnits="userSpaceOnUse" x1="55.097" y1="4.667" x2="55.097" y2="93.016"><stop offset="0" stop-color="#009f8d"/><stop offset="1" stop-color="#0064b4"/></linearGradient><path fill="url(#k)" d="M49.231 34.636h11.73v3.655h-11.73z"/><linearGradient id="l" gradientUnits="userSpaceOnUse" x1="9.712" y1="-4.332" x2="9.712" y2="94.023"><stop offset="0" stop-color="#009f8d"/><stop offset="1" stop-color="#0064b4"/></linearGradient><path fill="url(#l)" d="M3.466 91.817h.469c.07 0 .126.021.168.063a.198.198 0 0 1 .065.15v7.413a.299.299 0 0 1-.054.167.179.179 0 0 1-.158.08H1.699a.243.243 0 0 1-.182-.08.244.244 0 0 1-.074-.167v-6.935H.188c-.071 0-.122-.023-.159-.07a.12.12 0 0 1-.011-.142l2.531-3.688c.101-.165.271-.248.511-.248h2.257a.4.4 0 0 1 .255.079c.071.052.078.12.022.203l-2.128 3.175zm-.362-3.777a.388.388 0 0 1-.214.159 1.193 1.193 0 0 1-.319.036H.254c-.072 0-.122-.022-.151-.07a.14.14 0 0 1 0-.143l2.319-3.618c.1-.164.27-.247.51-.247h2.322c.099 0 .185.026.255.079.071.054.077.121.021.204l-2.426 3.6zm3.935 11.224c-.026.096-.112.143-.254.143H4.808c-.13 0-.171-.072-.13-.213l1.128-3.776c.028-.072.072-.116.128-.132a.658.658 0 0 1 .212-.027h1.809c.086 0 .146.032.182.096.036.065.047.122.032.169l-1.13 3.74zm11.96-5.009a.327.327 0 0 1-.191.062H5.465a.346.346 0 0 1-.191-.054c-.058-.036-.085-.076-.085-.123v-1.029c0-.06.025-.103.075-.133a.348.348 0 0 1 .18-.044h13.344c.069 0 .138.017.201.051.063.035.096.084.096.144v.939c-.001.083-.027.146-.086.187zm.085-7.659a.325.325 0 0 1-.191.062h-5.788l-.191.832h3.957c.398 0 .761.107 1.087.319.155.097.278.21.372.348a.788.788 0 0 1 .138.452v2.216c0 .367-.126.656-.382.869-.286.235-.69.355-1.215.355h-9.49c-.497 0-.895-.142-1.191-.426a1.087 1.087 0 0 1-.362-.833v-2.003c0-.342.135-.638.404-.887.299-.271.681-.408 1.149-.408h2.808l.193-.832H5.636a.368.368 0 0 1-.192-.053c-.058-.038-.085-.077-.085-.125V85.45c0-.059.024-.103.075-.132a.35.35 0 0 1 .182-.044h5.087l.21-.958c.03-.131.136-.196.319-.196h2.171c.069 0 .128.032.171.099.043.065.057.121.043.168l-.193.886h5.448c.071 0 .139.018.202.054.063.035.095.081.095.142v.938c-.001.084-.028.146-.085.189zm-9.619 2.295H8.212v1.755h1.253v-1.755zm5.768 10.674c-.029.023-.066.05-.116.08a.258.258 0 0 1-.118.044H9.977c-.184 0-.355-.033-.512-.097a1.51 1.51 0 0 1-.403-.24 1.158 1.158 0 0 1-.403-.886v-3.351c0-.06.019-.113.055-.16.033-.047.087-.07.156-.07h2.234a.23.23 0 0 1 .161.07.218.218 0 0 1 .074.16v3.174h4.275c.059 0 .101.024.129.069.027.049.035.084.021.107l-.531 1.1zm-2.469-10.674h-1.213v1.755h1.213v-1.755zm2.723 8.804c-.026.042-.07.061-.128.061h-2.126c-.144 0-.228-.04-.256-.124l-1.042-2.606c-.031-.047-.021-.093.021-.132a.228.228 0 0 1 .169-.063h2.044a.48.48 0 0 1 .149.028c.056.018.099.05.126.097l1.043 2.589c.029.06.029.109 0 .15zm.598-8.804h-1.234v1.755h1.234v-1.755zm3.318 10.454c-.027.041-.07.062-.125.062h-2.217c-.14 0-.227-.043-.254-.125l-1.404-3.9c-.029-.047-.021-.092.021-.133a.229.229 0 0 1 .17-.063h2.129c.043 0 .094.007.159.027.063.016.101.049.115.096l1.405 3.884c.03.059.03.11.001.152z"/><linearGradient id="m" gradientUnits="userSpaceOnUse" x1="30.988" y1="-4.331" x2="30.988" y2="94.023"><stop offset="0" stop-color="#009f8d"/><stop offset="1" stop-color="#0064b4"/></linearGradient><path fill="url(#m)" d="M40.607 99.602c-.021.058-.069.088-.14.088h-3.853c-.126 0-.261-.03-.401-.088l-4.066-1.632h-2.299l-4.104 1.596a3.84 3.84 0 0 0-.224.08.64.64 0 0 1-.223.044h-3.789c-.07 0-.116-.03-.139-.088-.021-.06-.004-.101.055-.125l3.873-1.507h-1.383c-.297 0-.567-.07-.811-.214-.254-.176-.383-.409-.383-.69v-4.06c0-.145.046-.276.139-.398.093-.125.209-.235.351-.329.142-.095.299-.169.47-.222.169-.052.331-.08.488-.08h13.576c.24 0 .458.037.648.106.192.071.353.171.479.302.257.236.384.497.384.78v3.776a.73.73 0 0 1-.142.443c-.089.13-.213.243-.369.337a1.637 1.637 0 0 1-.873.248h-1.17l3.829 1.507c.074.024.098.066.077.126zm-.246-10.144a.292.292 0 0 1-.191.071h-3.637v.885h.957v-.283c0-.06.021-.112.064-.16a.194.194 0 0 1 .147-.071h1.852c.07 0 .128.024.168.071.044.047.066.1.066.16v.622c0 .237-.116.412-.34.532-.2.129-.484.194-.854.194h-7.171c-.269 0-.481-.077-.637-.231a.675.675 0 0 1-.214-.495v-.622c0-.06.021-.112.063-.16.046-.046.094-.071.15-.071h1.851c.057 0 .112.024.159.071.052.047.075.1.075.16v.283h.979v-.884h-3.661c-.155 0-.232-.06-.232-.177v-.71c0-.118.071-.177.21-.177h3.684v-.674h-.809a.392.392 0 0 1-.159.221.394.394 0 0 1-.225.08h-2.127a.194.194 0 0 1-.167-.08c-.046-.053-.053-.107-.025-.167l.789-1.348c.084-.153.191-.23.318-.23h2.213c.057 0 .104.021.139.061.035.042.041.092.01.152l-.148.248h4V86H24.36v.727h5.213c.184 0 .275.085.275.249v.55a.237.237 0 0 1-.083.195.295.295 0 0 1-.192.071h-2.276v.763h1.959c.183 0 .274.082.274.248v.55a.233.233 0 0 1-.086.195.29.29 0 0 1-.188.07h-1.959v.746l2.171-.071c.183 0 .275.083.275.249v.549a.246.246 0 0 1-.084.197.292.292 0 0 1-.191.071l-7.725.284a.32.32 0 0 1-.182-.054c-.049-.036-.073-.077-.073-.125v-.708c0-.119.077-.178.232-.178l2.896-.106v-.852h-1.957c-.159 0-.232-.059-.232-.175v-.711c0-.117.066-.176.211-.176h1.979v-.763H22.7c-.155 0-.234-.059-.234-.178v-.584h-.446c-.185 0-.276-.083-.276-.249v-.939c0-.295.111-.52.341-.674.254-.176.609-.265 1.064-.265h6.382l-.127-.337a.285.285 0 0 1 .02-.24.211.211 0 0 1 .193-.115h2.49c.199 0 .319.06.361.178l.213.514h6.15c.495 0 .863.102 1.105.302.197.164.298.407.298.725v.817c0 .165-.106.248-.319.248h-.553v.443c0 .141-.024.237-.074.284-.051.048-.154.071-.31.071h-2.445v.674h3.637c.183 0 .277.082.277.248v.55a.233.233 0 0 1-.086.19zm-3.806 3.528h-11.13v.64h11.13v-.64zm0 1.667h-11.13v.64h11.13v-.64zm0 1.685h-11.13v.62h11.13v-.62z"/><linearGradient id="n" gradientUnits="userSpaceOnUse" x1="52.391" y1="-4.333" x2="52.391" y2="94.024"><stop offset="0" stop-color="#009f8d"/><stop offset="1" stop-color="#0064b4"/></linearGradient><path fill="url(#n)" d="M45.618 94.335a.43.43 0 0 1-.232.194.949.949 0 0 1-.319.052h-2.171a.265.265 0 0 1-.18-.062c-.051-.04-.063-.09-.034-.149l2.128-3.707a.276.276 0 0 1 .257-.141h2.467c.058 0 .104.026.139.08.034.052.046.091.033.115l-2.088 3.618zm16.001 5.444H43.046a.352.352 0 0 1-.194-.054c-.058-.036-.084-.078-.084-.124v-.958c0-.059.026-.103.073-.132a.348.348 0 0 1 .182-.045h7.915v-1.472h-6.659a.343.343 0 0 1-.191-.053c-.057-.035-.086-.077-.086-.124v-.957a.14.14 0 0 1 .074-.132.333.333 0 0 1 .184-.045h6.679v-.533c0-.059.028-.12.087-.185.056-.066.112-.099.168-.099h2.193c.056 0 .108.033.16.099a.312.312 0 0 1 .074.185v.532h6.745c.184 0 .275.067.275.195v.922c0 .13-.079.195-.232.195H53.62v1.472h7.957c.186 0 .275.064.275.194v.923c.001.129-.076.196-.233.196zm-14.265-9.886a.28.28 0 0 1-.183.063h-2.384c-.113 0-.197-.03-.255-.09l-1.638-2.34c-.015-.023-.005-.062.031-.116.035-.052.081-.08.139-.08h2.469c.112 0 .197.049.256.143l1.595 2.27c.029.059.02.111-.03.15zm.042-3.192a.276.276 0 0 1-.182.063h-2.382c-.114 0-.2-.029-.256-.09l-1.596-2.339c-.015-.024-.003-.063.031-.115.037-.054.081-.08.138-.08h2.469c.113 0 .199.046.255.142l1.554 2.27c.028.058.017.108-.031.149zm2.436 7.298c-.113.129-.29.194-.533.194h-2.212a.302.302 0 0 1-.191-.07c-.058-.048-.064-.095-.021-.142l2.533-2.644c.084-.095.17-.14.256-.14h2.467c.056 0 .105.026.15.08.041.053.048.091.02.115l-2.469 2.607zm11.981-6.082a.295.295 0 0 1-.193.071h-2.36c-.24 0-.42-.065-.532-.196l-.49-.567v.745c0 .13-.077.195-.233.195h-2.13v.975h5.107c.185 0 .278.064.278.194v.922c0 .132-.08.195-.234.195h-5.151v2.643c0 .532-.174.905-.53 1.119a2.271 2.271 0 0 1-.67.202 6.13 6.13 0 0 1-.947.063h-1.66c-.114 0-.199-.059-.255-.178l-.425-.815c-.043-.095-.033-.171.031-.23a.374.374 0 0 1 .268-.089h1.509v-2.714h-5.064a.353.353 0 0 1-.192-.052c-.053-.036-.084-.077-.084-.125v-.957c0-.06.024-.103.073-.134a.366.366 0 0 1 .182-.044h5.086v-.975h-1.958a.294.294 0 0 1-.178-.053c-.052-.034-.076-.078-.076-.124v-.922l-.659.743c-.114.132-.292.195-.532.195h-2.363a.277.277 0 0 1-.191-.071c-.055-.046-.063-.093-.021-.141l2.342-2.641c.113-.119.223-.226.33-.319a1.85 1.85 0 0 1 .35-.249c.386-.19.801-.285 1.256-.285h6.342c.396 0 .724.072.978.214.128.083.247.18.363.291.112.112.239.247.383.401l2.276 2.569c.037.049.028.096-.026.144zm-4.982-2.306h-4.596l-1.085 1.24h6.767l-1.086-1.24zm5.236 8.476a.294.294 0 0 1-.191.071h-2.214c-.24 0-.419-.066-.533-.195l-2.469-2.606c-.026-.024-.021-.062.024-.115.042-.054.09-.081.146-.081h2.47c.086 0 .172.048.257.142l2.532 2.642c.043.047.035.095-.022.142z"/><linearGradient id="o" gradientUnits="userSpaceOnUse" x1="73.524" y1="-4.332" x2="73.524" y2="94.023"><stop offset="0" stop-color="#009f8d"/><stop offset="1" stop-color="#0064b4"/></linearGradient><path fill="url(#o)" d="M66.173 98.713c0 .062-.03.112-.095.153a.368.368 0 0 1-.202.062h-1.597a.226.226 0 0 1-.18-.089.266.266 0 0 1-.075-.178l.533-6.578c.014-.07.047-.121.105-.15a.409.409 0 0 1 .192-.044h1.637c.07 0 .124.024.16.072.035.046.053.088.053.123l-.531 6.629zm6.681-7.588a.29.29 0 0 1-.191.072h-2.766v8.246a.26.26 0 0 1-.064.167.21.21 0 0 1-.17.08h-2.191a.236.236 0 0 1-.181-.08.242.242 0 0 1-.076-.167v-8.246H64.45a.305.305 0 0 1-.191-.063.178.178 0 0 1-.084-.151v-.992c0-.058.027-.109.084-.151a.313.313 0 0 1 .191-.063h2.765v-5.426c0-.06.03-.111.086-.16a.268.268 0 0 1 .171-.071h2.17c.057 0 .114.024.168.071.059.049.088.1.088.16v5.426h2.766c.186 0 .277.083.277.25v.902a.244.244 0 0 1-.087.196zm-6.192-2.216a.26.26 0 0 1-.189.088H64.94c-.169 0-.271-.07-.298-.213l-.447-3.599c-.016-.035 0-.077.044-.124a.212.212 0 0 1 .168-.071h1.553c.073 0 .135.014.193.044a.196.196 0 0 1 .104.15l.47 3.545c.015.062-.007.122-.065.18zm5.79-.107c-.029.142-.128.212-.3.212h-1.53a.258.258 0 0 1-.192-.087c-.057-.062-.085-.119-.085-.177l.424-3.546a.206.206 0 0 1 .116-.152.493.493 0 0 1 .204-.045h1.553c.057 0 .105.025.149.073.042.048.063.087.063.125l-.402 3.597zm.468 10.036a.153.153 0 0 1-.148.089h-1.66a.381.381 0 0 1-.206-.062c-.06-.042-.093-.092-.093-.153l-.428-6.63c0-.035.021-.077.067-.123a.185.185 0 0 1 .146-.072h1.64c.07 0 .142.015.215.044.068.029.104.081.104.15l.404 6.578a.43.43 0 0 1-.041.179zm10.04-3.385a.244.244 0 0 1-.169.105l-.979.16v3.725a.238.238 0 0 1-.073.167.239.239 0 0 1-.182.08h-2.255a.271.271 0 0 1-.192-.08.223.223 0 0 1-.084-.167V96.18l-5.341.869a.28.28 0 0 1-.235-.035c-.07-.047-.105-.107-.105-.178v-.939c0-.061.018-.116.052-.169a.236.236 0 0 1 .159-.099l5.471-.902V84.37a.21.21 0 0 1 .073-.16.236.236 0 0 1 .159-.07h2.277c.058 0 .116.024.181.07.063.048.096.101.096.16v9.894l.913-.141a.275.275 0 0 1 .205.045c.063.04.094.091.094.15v.957a.312.312 0 0 1-.065.178zm-4.924-1.445c-.02.04-.067.061-.14.061h-2.425c-.07 0-.139-.002-.203-.009a.168.168 0 0 1-.137-.079l-1.66-3.99c-.016-.023 0-.063.042-.115a.183.183 0 0 1 .149-.08h2.384c.041 0 .098.006.17.016.071.014.122.043.149.089l1.66 3.955c.029.06.033.11.011.152zm.427-5.019c-.023.041-.067.062-.139.062h-2.427c-.198 0-.319-.048-.363-.142l-1.637-3.795c-.013-.024 0-.062.044-.115.042-.052.092-.08.148-.08h2.384c.042 0 .096.006.17.018a.21.21 0 0 1 .149.089l1.659 3.812c.028.059.033.109.012.151z"/></svg>